<?xml version="1.0" standalone="no"?>
<!DOCTYPE svg PUBLIC "-//W3C//DTD SVG 20010904//EN"
 "http://www.w3.org/TR/2001/REC-SVG-20010904/DTD/svg10.dtd">
<svg version="1.0" xmlns="http://www.w3.org/2000/svg"
 width="700.000000pt" height="700.000000pt" viewBox="0 0 700.000000 700.000000"
 preserveAspectRatio="xMidYMid meet">
<metadata>
Created by potrace 1.11, written by Peter Selinger 2001-2013
</metadata>
<g transform="translate(0.000000,700.000000) scale(0.100000,-0.100000)"
fill="#000000" stroke="none">
<path d="M1945 5875 c-742 -359 -1349 -657 -1347 -661 2 -5 111 -44 244 -86
132 -42 242 -78 243 -80 2 -2 -117 -658 -264 -1458 -148 -800 -265 -1458 -262
-1462 3 -3 510 -196 1126 -428 616 -232 1123 -425 1127 -429 4 -3 0 -35 -8
-71 -22 -100 -29 -270 -14 -325 30 -108 133 -152 1020 -432 184 -58 404 -130
488 -161 l153 -55 87 39 c169 75 341 181 502 309 102 82 124 101 359 319 160
149 188 179 211 231 15 33 31 74 34 91 6 29 24 38 368 199 198 94 362 175 365
181 2 7 -97 664 -220 1460 -124 797 -224 1450 -223 1451 1 1 103 30 226 63
123 33 226 62 228 64 1 2 -364 360 -813 796 -599 582 -824 794 -848 801 -94
25 -1383 299 -1406 298 -14 -1 -633 -295 -1376 -654z m3091 -710 c87 -31 164
-53 170 -51 16 6 81 -90 107 -158 25 -64 33 -202 18 -278 -27 -130 -138 -277
-257 -340 -236 -126 -538 -33 -664 204 -80 149 -81 327 -5 478 24 47 110 150
126 150 5 0 11 -11 15 -25 3 -14 9 -25 13 -25 4 0 67 22 141 50 74 27 145 49
157 50 12 0 92 -25 179 -55z m-2332 -901 l1601 -526 48 15 c56 18 56 20 28
-91 -22 -85 -76 -385 -86 -473 l-6 -56 -57 0 c-103 0 -409 -113 -669 -247
-172 -89 -268 -152 -334 -217 -51 -52 -56 -64 -84 -209 -21 -109 -56 -234
-165 -600 -48 -162 -103 -350 -121 -418 -26 -101 -35 -122 -48 -117 -9 4 -509
193 -1111 421 -602 228 -1098 418 -1101 422 -5 5 461 2495 486 2600 3 12 8 22
12 22 3 0 726 -237 1607 -526z m3231 -76 c8 -39 394 -2501 397 -2537 l3 -33
-325 -152 c-179 -84 -326 -149 -328 -145 -2 4 4 41 12 81 81 393 18 957 -143
1276 -40 80 -113 143 -233 202 l-98 48 -4 308 c-3 170 -7 347 -11 394 l-6 85
44 -110 c114 -286 217 -474 292 -530 70 -54 144 -36 185 46 18 34 19 43 8 50
-20 13 -21 12 -46 -32 -31 -53 -59 -66 -101 -45 -85 45 -228 315 -345 656 -25
74 -51 144 -57 156 -6 11 -9 36 -7 55 l3 34 360 107 c198 58 368 107 377 107
11 1 20 -8 23 -21z m-1652 -1105 c-12 -47 -9 -325 5 -356 14 -32 71 -60 174
-85 37 -8 65 -19 63 -23 -3 -4 59 -68 136 -143 l141 -137 -24 -18 c-12 -11
-71 -59 -129 -107 -59 -49 -139 -111 -178 -138 l-72 -49 -72 12 c-374 64 -711
200 -960 387 -68 51 -167 144 -167 156 0 14 65 81 116 119 115 84 350 209 539
284 179 72 342 124 388 124 47 1 47 1 40 -26z m1030 -236 c50 -24 100 -53 110
-64 18 -20 16 -22 -142 -120 l-160 -100 -37 38 c-29 29 -34 39 -21 39 26 0 90
36 103 57 11 18 27 84 39 156 3 20 8 37 11 37 2 0 46 -20 97 -43z m-300 -275
l47 -48 -96 -67 c-52 -37 -100 -67 -105 -67 -6 0 -60 48 -121 108 l-110 107
154 5 c84 3 160 7 168 8 9 1 37 -19 63 -46z m-1628 -208 c205 -158 456 -259
896 -359 l117 -26 11 -57 c44 -227 52 -433 44 -1093 l-6 -576 -61 27 c-108 49
-364 136 -737 250 -563 172 -750 246 -812 320 -74 88 -39 308 144 914 50 166
109 363 130 438 32 118 44 169 75 317 5 22 9 19 72 -42 37 -37 94 -87 127
-113z"/>
<path d="M4633 5068 c-65 -31 -40 -138 32 -138 24 0 65 46 65 73 0 49 -54 85
-97 65z"/>
<path d="M4926 5038 c-49 -69 24 -150 92 -102 28 20 31 83 4 107 -27 25 -78
22 -96 -5z"/>
<path d="M4846 4585 c-55 -19 -88 -45 -111 -88 -25 -45 -14 -82 34 -114 80
-54 243 -7 285 81 46 97 -77 168 -208 121z"/>
<path d="M3279 2186 c-33 -16 -37 -59 -7 -80 43 -30 108 -14 108 28 0 41 -60
73 -101 52z"/>
<path d="M3462 2098 c-33 -33 2 -89 57 -90 61 -2 81 45 35 81 -30 23 -74 27
-92 9z"/>
<path d="M3672 2018 c-34 -34 4 -88 63 -88 37 0 55 16 55 46 0 43 -87 73 -118
42z"/>
<path d="M3495 1724 c-11 -2 -45 -9 -75 -15 -123 -25 -213 -91 -259 -188 -23
-49 -26 -68 -25 -156 3 -234 102 -414 280 -507 98 -51 166 -68 306 -75 275
-13 447 51 509 189 34 78 39 241 10 336 -51 168 -204 316 -406 392 -48 18 -86
23 -190 26 -71 1 -139 1 -150 -2z"/>
</g>
</svg>
